<mxfile host="app.diagrams.net" modified="2024-05-09T19:46:26.411Z" agent="Mozilla/5.0 (Windows NT 10.0; Win64; x64) AppleWebKit/537.36 (KHTML, like Gecko) Chrome/124.0.0.0 Safari/537.36" etag="I27gU73yJY-vDHHPoLER" version="24.3.1" type="device">
  <diagram id="R2lEEEUBdFMjLlhIrx00" name="Page-1">
    <mxGraphModel dx="3315" dy="803" grid="1" gridSize="10" guides="1" tooltips="1" connect="1" arrows="1" fold="1" page="1" pageScale="1" pageWidth="850" pageHeight="1100" math="0" shadow="0" extFonts="Permanent Marker^https://fonts.googleapis.com/css?family=Permanent+Marker">
      <root>
        <mxCell id="0" />
        <mxCell id="1" parent="0" />
        <mxCell id="B-fqAywJtdYy5qds0nsP-2" value="Venta" style="shape=table;startSize=30;container=1;collapsible=1;childLayout=tableLayout;fixedRows=1;rowLines=0;fontStyle=1;align=center;resizeLast=1;" vertex="1" parent="1">
          <mxGeometry x="-1255" y="870" width="250" height="160" as="geometry" />
        </mxCell>
        <mxCell id="B-fqAywJtdYy5qds0nsP-3" value="" style="shape=partialRectangle;collapsible=0;dropTarget=0;pointerEvents=0;fillColor=none;points=[[0,0.5],[1,0.5]];portConstraint=eastwest;top=0;left=0;right=0;bottom=1;" vertex="1" parent="B-fqAywJtdYy5qds0nsP-2">
          <mxGeometry y="30" width="250" height="30" as="geometry" />
        </mxCell>
        <mxCell id="B-fqAywJtdYy5qds0nsP-4" value="PK" style="shape=partialRectangle;overflow=hidden;connectable=0;fillColor=none;top=0;left=0;bottom=0;right=0;fontStyle=1;" vertex="1" parent="B-fqAywJtdYy5qds0nsP-3">
          <mxGeometry width="30" height="30" as="geometry">
            <mxRectangle width="30" height="30" as="alternateBounds" />
          </mxGeometry>
        </mxCell>
        <mxCell id="B-fqAywJtdYy5qds0nsP-5" value="id_venta (integer)" style="shape=partialRectangle;overflow=hidden;connectable=0;fillColor=none;top=0;left=0;bottom=0;right=0;align=left;spacingLeft=6;fontStyle=5;" vertex="1" parent="B-fqAywJtdYy5qds0nsP-3">
          <mxGeometry x="30" width="220" height="30" as="geometry">
            <mxRectangle width="220" height="30" as="alternateBounds" />
          </mxGeometry>
        </mxCell>
        <mxCell id="B-fqAywJtdYy5qds0nsP-6" value="" style="shape=partialRectangle;collapsible=0;dropTarget=0;pointerEvents=0;fillColor=none;points=[[0,0.5],[1,0.5]];portConstraint=eastwest;top=0;left=0;right=0;bottom=0;" vertex="1" parent="B-fqAywJtdYy5qds0nsP-2">
          <mxGeometry y="60" width="250" height="30" as="geometry" />
        </mxCell>
        <mxCell id="B-fqAywJtdYy5qds0nsP-7" value="FK" style="shape=partialRectangle;overflow=hidden;connectable=0;fillColor=none;top=0;left=0;bottom=0;right=0;" vertex="1" parent="B-fqAywJtdYy5qds0nsP-6">
          <mxGeometry width="30" height="30" as="geometry">
            <mxRectangle width="30" height="30" as="alternateBounds" />
          </mxGeometry>
        </mxCell>
        <mxCell id="B-fqAywJtdYy5qds0nsP-8" value="id_usuario (integer)" style="shape=partialRectangle;overflow=hidden;connectable=0;fillColor=none;top=0;left=0;bottom=0;right=0;align=left;spacingLeft=6;" vertex="1" parent="B-fqAywJtdYy5qds0nsP-6">
          <mxGeometry x="30" width="220" height="30" as="geometry">
            <mxRectangle width="220" height="30" as="alternateBounds" />
          </mxGeometry>
        </mxCell>
        <mxCell id="B-fqAywJtdYy5qds0nsP-9" value="" style="shape=partialRectangle;collapsible=0;dropTarget=0;pointerEvents=0;fillColor=none;points=[[0,0.5],[1,0.5]];portConstraint=eastwest;top=0;left=0;right=0;bottom=0;" vertex="1" parent="B-fqAywJtdYy5qds0nsP-2">
          <mxGeometry y="90" width="250" height="30" as="geometry" />
        </mxCell>
        <mxCell id="B-fqAywJtdYy5qds0nsP-10" value="FK" style="shape=partialRectangle;overflow=hidden;connectable=0;fillColor=none;top=0;left=0;bottom=0;right=0;" vertex="1" parent="B-fqAywJtdYy5qds0nsP-9">
          <mxGeometry width="30" height="30" as="geometry">
            <mxRectangle width="30" height="30" as="alternateBounds" />
          </mxGeometry>
        </mxCell>
        <mxCell id="B-fqAywJtdYy5qds0nsP-11" value="id_producto (integer)" style="shape=partialRectangle;overflow=hidden;connectable=0;fillColor=none;top=0;left=0;bottom=0;right=0;align=left;spacingLeft=6;" vertex="1" parent="B-fqAywJtdYy5qds0nsP-9">
          <mxGeometry x="30" width="220" height="30" as="geometry">
            <mxRectangle width="220" height="30" as="alternateBounds" />
          </mxGeometry>
        </mxCell>
        <mxCell id="B-fqAywJtdYy5qds0nsP-12" value="" style="shape=partialRectangle;collapsible=0;dropTarget=0;pointerEvents=0;fillColor=none;points=[[0,0.5],[1,0.5]];portConstraint=eastwest;top=0;left=0;right=0;bottom=0;" vertex="1" parent="B-fqAywJtdYy5qds0nsP-2">
          <mxGeometry y="120" width="250" height="30" as="geometry" />
        </mxCell>
        <mxCell id="B-fqAywJtdYy5qds0nsP-13" value="" style="shape=partialRectangle;overflow=hidden;connectable=0;fillColor=none;top=0;left=0;bottom=0;right=0;" vertex="1" parent="B-fqAywJtdYy5qds0nsP-12">
          <mxGeometry width="30" height="30" as="geometry">
            <mxRectangle width="30" height="30" as="alternateBounds" />
          </mxGeometry>
        </mxCell>
        <mxCell id="B-fqAywJtdYy5qds0nsP-14" value="monto_total (integer)" style="shape=partialRectangle;overflow=hidden;connectable=0;fillColor=none;top=0;left=0;bottom=0;right=0;align=left;spacingLeft=6;" vertex="1" parent="B-fqAywJtdYy5qds0nsP-12">
          <mxGeometry x="30" width="220" height="30" as="geometry">
            <mxRectangle width="220" height="30" as="alternateBounds" />
          </mxGeometry>
        </mxCell>
        <mxCell id="B-fqAywJtdYy5qds0nsP-21" value="Producto" style="shape=table;startSize=30;container=1;collapsible=1;childLayout=tableLayout;fixedRows=1;rowLines=0;fontStyle=1;align=center;resizeLast=1;" vertex="1" parent="1">
          <mxGeometry x="-1555" y="710" width="250" height="190" as="geometry" />
        </mxCell>
        <mxCell id="B-fqAywJtdYy5qds0nsP-22" value="" style="shape=partialRectangle;collapsible=0;dropTarget=0;pointerEvents=0;fillColor=none;points=[[0,0.5],[1,0.5]];portConstraint=eastwest;top=0;left=0;right=0;bottom=1;" vertex="1" parent="B-fqAywJtdYy5qds0nsP-21">
          <mxGeometry y="30" width="250" height="30" as="geometry" />
        </mxCell>
        <mxCell id="B-fqAywJtdYy5qds0nsP-23" value="PK" style="shape=partialRectangle;overflow=hidden;connectable=0;fillColor=none;top=0;left=0;bottom=0;right=0;fontStyle=1;" vertex="1" parent="B-fqAywJtdYy5qds0nsP-22">
          <mxGeometry width="30" height="30" as="geometry">
            <mxRectangle width="30" height="30" as="alternateBounds" />
          </mxGeometry>
        </mxCell>
        <mxCell id="B-fqAywJtdYy5qds0nsP-24" value="id_producto (integer)" style="shape=partialRectangle;overflow=hidden;connectable=0;fillColor=none;top=0;left=0;bottom=0;right=0;align=left;spacingLeft=6;fontStyle=5;" vertex="1" parent="B-fqAywJtdYy5qds0nsP-22">
          <mxGeometry x="30" width="220" height="30" as="geometry">
            <mxRectangle width="220" height="30" as="alternateBounds" />
          </mxGeometry>
        </mxCell>
        <mxCell id="B-fqAywJtdYy5qds0nsP-25" value="" style="shape=partialRectangle;collapsible=0;dropTarget=0;pointerEvents=0;fillColor=none;points=[[0,0.5],[1,0.5]];portConstraint=eastwest;top=0;left=0;right=0;bottom=0;" vertex="1" parent="B-fqAywJtdYy5qds0nsP-21">
          <mxGeometry y="60" width="250" height="30" as="geometry" />
        </mxCell>
        <mxCell id="B-fqAywJtdYy5qds0nsP-26" value="" style="shape=partialRectangle;overflow=hidden;connectable=0;fillColor=none;top=0;left=0;bottom=0;right=0;" vertex="1" parent="B-fqAywJtdYy5qds0nsP-25">
          <mxGeometry width="30" height="30" as="geometry">
            <mxRectangle width="30" height="30" as="alternateBounds" />
          </mxGeometry>
        </mxCell>
        <mxCell id="B-fqAywJtdYy5qds0nsP-27" value="nombre (text)" style="shape=partialRectangle;overflow=hidden;connectable=0;fillColor=none;top=0;left=0;bottom=0;right=0;align=left;spacingLeft=6;" vertex="1" parent="B-fqAywJtdYy5qds0nsP-25">
          <mxGeometry x="30" width="220" height="30" as="geometry">
            <mxRectangle width="220" height="30" as="alternateBounds" />
          </mxGeometry>
        </mxCell>
        <mxCell id="B-fqAywJtdYy5qds0nsP-28" value="" style="shape=partialRectangle;collapsible=0;dropTarget=0;pointerEvents=0;fillColor=none;points=[[0,0.5],[1,0.5]];portConstraint=eastwest;top=0;left=0;right=0;bottom=0;" vertex="1" parent="B-fqAywJtdYy5qds0nsP-21">
          <mxGeometry y="90" width="250" height="30" as="geometry" />
        </mxCell>
        <mxCell id="B-fqAywJtdYy5qds0nsP-29" value="" style="shape=partialRectangle;overflow=hidden;connectable=0;fillColor=none;top=0;left=0;bottom=0;right=0;" vertex="1" parent="B-fqAywJtdYy5qds0nsP-28">
          <mxGeometry width="30" height="30" as="geometry">
            <mxRectangle width="30" height="30" as="alternateBounds" />
          </mxGeometry>
        </mxCell>
        <mxCell id="B-fqAywJtdYy5qds0nsP-30" value="descripciÃ³n (text)" style="shape=partialRectangle;overflow=hidden;connectable=0;fillColor=none;top=0;left=0;bottom=0;right=0;align=left;spacingLeft=6;" vertex="1" parent="B-fqAywJtdYy5qds0nsP-28">
          <mxGeometry x="30" width="220" height="30" as="geometry">
            <mxRectangle width="220" height="30" as="alternateBounds" />
          </mxGeometry>
        </mxCell>
        <mxCell id="B-fqAywJtdYy5qds0nsP-31" value="" style="shape=partialRectangle;collapsible=0;dropTarget=0;pointerEvents=0;fillColor=none;points=[[0,0.5],[1,0.5]];portConstraint=eastwest;top=0;left=0;right=0;bottom=0;" vertex="1" parent="B-fqAywJtdYy5qds0nsP-21">
          <mxGeometry y="120" width="250" height="30" as="geometry" />
        </mxCell>
        <mxCell id="B-fqAywJtdYy5qds0nsP-32" value="" style="shape=partialRectangle;overflow=hidden;connectable=0;fillColor=none;top=0;left=0;bottom=0;right=0;" vertex="1" parent="B-fqAywJtdYy5qds0nsP-31">
          <mxGeometry width="30" height="30" as="geometry">
            <mxRectangle width="30" height="30" as="alternateBounds" />
          </mxGeometry>
        </mxCell>
        <mxCell id="B-fqAywJtdYy5qds0nsP-33" value="precio (integer)" style="shape=partialRectangle;overflow=hidden;connectable=0;fillColor=none;top=0;left=0;bottom=0;right=0;align=left;spacingLeft=6;" vertex="1" parent="B-fqAywJtdYy5qds0nsP-31">
          <mxGeometry x="30" width="220" height="30" as="geometry">
            <mxRectangle width="220" height="30" as="alternateBounds" />
          </mxGeometry>
        </mxCell>
        <mxCell id="B-fqAywJtdYy5qds0nsP-34" value="" style="shape=partialRectangle;collapsible=0;dropTarget=0;pointerEvents=0;fillColor=none;points=[[0,0.5],[1,0.5]];portConstraint=eastwest;top=0;left=0;right=0;bottom=0;" vertex="1" parent="B-fqAywJtdYy5qds0nsP-21">
          <mxGeometry y="150" width="250" height="30" as="geometry" />
        </mxCell>
        <mxCell id="B-fqAywJtdYy5qds0nsP-35" value="" style="shape=partialRectangle;overflow=hidden;connectable=0;fillColor=none;top=0;left=0;bottom=0;right=0;" vertex="1" parent="B-fqAywJtdYy5qds0nsP-34">
          <mxGeometry width="30" height="30" as="geometry">
            <mxRectangle width="30" height="30" as="alternateBounds" />
          </mxGeometry>
        </mxCell>
        <mxCell id="B-fqAywJtdYy5qds0nsP-36" value="cant_sotck (integer)" style="shape=partialRectangle;overflow=hidden;connectable=0;fillColor=none;top=0;left=0;bottom=0;right=0;align=left;spacingLeft=6;" vertex="1" parent="B-fqAywJtdYy5qds0nsP-34">
          <mxGeometry x="30" width="220" height="30" as="geometry">
            <mxRectangle width="220" height="30" as="alternateBounds" />
          </mxGeometry>
        </mxCell>
        <mxCell id="B-fqAywJtdYy5qds0nsP-40" value="Usuario" style="shape=table;startSize=30;container=1;collapsible=1;childLayout=tableLayout;fixedRows=1;rowLines=0;fontStyle=1;align=center;resizeLast=1;" vertex="1" parent="1">
          <mxGeometry x="-1245" y="680" width="250" height="160" as="geometry" />
        </mxCell>
        <mxCell id="B-fqAywJtdYy5qds0nsP-41" value="" style="shape=partialRectangle;collapsible=0;dropTarget=0;pointerEvents=0;fillColor=none;points=[[0,0.5],[1,0.5]];portConstraint=eastwest;top=0;left=0;right=0;bottom=1;" vertex="1" parent="B-fqAywJtdYy5qds0nsP-40">
          <mxGeometry y="30" width="250" height="30" as="geometry" />
        </mxCell>
        <mxCell id="B-fqAywJtdYy5qds0nsP-42" value="PK" style="shape=partialRectangle;overflow=hidden;connectable=0;fillColor=none;top=0;left=0;bottom=0;right=0;fontStyle=1;" vertex="1" parent="B-fqAywJtdYy5qds0nsP-41">
          <mxGeometry width="30" height="30" as="geometry">
            <mxRectangle width="30" height="30" as="alternateBounds" />
          </mxGeometry>
        </mxCell>
        <mxCell id="B-fqAywJtdYy5qds0nsP-43" value="id_usuario (integer)" style="shape=partialRectangle;overflow=hidden;connectable=0;fillColor=none;top=0;left=0;bottom=0;right=0;align=left;spacingLeft=6;fontStyle=5;" vertex="1" parent="B-fqAywJtdYy5qds0nsP-41">
          <mxGeometry x="30" width="220" height="30" as="geometry">
            <mxRectangle width="220" height="30" as="alternateBounds" />
          </mxGeometry>
        </mxCell>
        <mxCell id="B-fqAywJtdYy5qds0nsP-44" value="" style="shape=partialRectangle;collapsible=0;dropTarget=0;pointerEvents=0;fillColor=none;points=[[0,0.5],[1,0.5]];portConstraint=eastwest;top=0;left=0;right=0;bottom=0;" vertex="1" parent="B-fqAywJtdYy5qds0nsP-40">
          <mxGeometry y="60" width="250" height="30" as="geometry" />
        </mxCell>
        <mxCell id="B-fqAywJtdYy5qds0nsP-45" value="" style="shape=partialRectangle;overflow=hidden;connectable=0;fillColor=none;top=0;left=0;bottom=0;right=0;" vertex="1" parent="B-fqAywJtdYy5qds0nsP-44">
          <mxGeometry width="30" height="30" as="geometry">
            <mxRectangle width="30" height="30" as="alternateBounds" />
          </mxGeometry>
        </mxCell>
        <mxCell id="B-fqAywJtdYy5qds0nsP-46" value="email (text)" style="shape=partialRectangle;overflow=hidden;connectable=0;fillColor=none;top=0;left=0;bottom=0;right=0;align=left;spacingLeft=6;" vertex="1" parent="B-fqAywJtdYy5qds0nsP-44">
          <mxGeometry x="30" width="220" height="30" as="geometry">
            <mxRectangle width="220" height="30" as="alternateBounds" />
          </mxGeometry>
        </mxCell>
        <mxCell id="B-fqAywJtdYy5qds0nsP-47" value="" style="shape=partialRectangle;collapsible=0;dropTarget=0;pointerEvents=0;fillColor=none;points=[[0,0.5],[1,0.5]];portConstraint=eastwest;top=0;left=0;right=0;bottom=0;" vertex="1" parent="B-fqAywJtdYy5qds0nsP-40">
          <mxGeometry y="90" width="250" height="30" as="geometry" />
        </mxCell>
        <mxCell id="B-fqAywJtdYy5qds0nsP-48" value="" style="shape=partialRectangle;overflow=hidden;connectable=0;fillColor=none;top=0;left=0;bottom=0;right=0;" vertex="1" parent="B-fqAywJtdYy5qds0nsP-47">
          <mxGeometry width="30" height="30" as="geometry">
            <mxRectangle width="30" height="30" as="alternateBounds" />
          </mxGeometry>
        </mxCell>
        <mxCell id="B-fqAywJtdYy5qds0nsP-49" value="password (text)" style="shape=partialRectangle;overflow=hidden;connectable=0;fillColor=none;top=0;left=0;bottom=0;right=0;align=left;spacingLeft=6;" vertex="1" parent="B-fqAywJtdYy5qds0nsP-47">
          <mxGeometry x="30" width="220" height="30" as="geometry">
            <mxRectangle width="220" height="30" as="alternateBounds" />
          </mxGeometry>
        </mxCell>
        <mxCell id="B-fqAywJtdYy5qds0nsP-50" value="" style="shape=partialRectangle;collapsible=0;dropTarget=0;pointerEvents=0;fillColor=none;points=[[0,0.5],[1,0.5]];portConstraint=eastwest;top=0;left=0;right=0;bottom=0;" vertex="1" parent="B-fqAywJtdYy5qds0nsP-40">
          <mxGeometry y="120" width="250" height="30" as="geometry" />
        </mxCell>
        <mxCell id="B-fqAywJtdYy5qds0nsP-51" value="" style="shape=partialRectangle;overflow=hidden;connectable=0;fillColor=none;top=0;left=0;bottom=0;right=0;" vertex="1" parent="B-fqAywJtdYy5qds0nsP-50">
          <mxGeometry width="30" height="30" as="geometry">
            <mxRectangle width="30" height="30" as="alternateBounds" />
          </mxGeometry>
        </mxCell>
        <mxCell id="B-fqAywJtdYy5qds0nsP-52" value="tipo (text)" style="shape=partialRectangle;overflow=hidden;connectable=0;fillColor=none;top=0;left=0;bottom=0;right=0;align=left;spacingLeft=6;" vertex="1" parent="B-fqAywJtdYy5qds0nsP-50">
          <mxGeometry x="30" width="220" height="30" as="geometry">
            <mxRectangle width="220" height="30" as="alternateBounds" />
          </mxGeometry>
        </mxCell>
        <mxCell id="B-fqAywJtdYy5qds0nsP-59" value="" style="endArrow=none;dashed=1;html=1;rounded=0;" edge="1" parent="1" source="B-fqAywJtdYy5qds0nsP-41" target="B-fqAywJtdYy5qds0nsP-6">
          <mxGeometry width="50" height="50" relative="1" as="geometry">
            <mxPoint x="-1207.5" y="725" as="sourcePoint" />
            <mxPoint x="-1342.5" y="1035" as="targetPoint" />
            <Array as="points">
              <mxPoint x="-1275" y="725" />
              <mxPoint x="-1275" y="945" />
            </Array>
          </mxGeometry>
        </mxCell>
        <mxCell id="B-fqAywJtdYy5qds0nsP-60" value="" style="endArrow=none;dashed=1;html=1;rounded=0;" edge="1" parent="1" source="B-fqAywJtdYy5qds0nsP-22" target="B-fqAywJtdYy5qds0nsP-9">
          <mxGeometry width="50" height="50" relative="1" as="geometry">
            <mxPoint x="-1265" y="750" as="sourcePoint" />
            <mxPoint x="-1265" y="970" as="targetPoint" />
            <Array as="points">
              <mxPoint x="-1285" y="755" />
              <mxPoint x="-1285" y="975" />
            </Array>
          </mxGeometry>
        </mxCell>
        <mxCell id="B-fqAywJtdYy5qds0nsP-61" value="" style="group" vertex="1" connectable="0" parent="1">
          <mxGeometry x="-1391" y="70" width="232.5" height="510" as="geometry" />
        </mxCell>
        <mxCell id="EDjnVnsCVGzYCs3zLX-O-39" value="registra" style="rhombus;whiteSpace=wrap;html=1;" parent="B-fqAywJtdYy5qds0nsP-61" vertex="1">
          <mxGeometry x="95" y="132.5" width="65" height="37.5" as="geometry" />
        </mxCell>
        <mxCell id="EDjnVnsCVGzYCs3zLX-O-42" value="" style="endArrow=none;html=1;rounded=0;" parent="B-fqAywJtdYy5qds0nsP-61" source="EDjnVnsCVGzYCs3zLX-O-9" target="EDjnVnsCVGzYCs3zLX-O-39" edge="1">
          <mxGeometry width="50" height="50" relative="1" as="geometry">
            <mxPoint x="157.5" y="87.5" as="sourcePoint" />
            <mxPoint x="252.5" y="87.5" as="targetPoint" />
          </mxGeometry>
        </mxCell>
        <mxCell id="ayAh6vKi0bp1DgzsXxaQ-1" value="" style="group" parent="B-fqAywJtdYy5qds0nsP-61" vertex="1" connectable="0">
          <mxGeometry x="22.5" y="402.5" width="210" height="107.5" as="geometry" />
        </mxCell>
        <mxCell id="EDjnVnsCVGzYCs3zLX-O-61" value="precio" style="ellipse;whiteSpace=wrap;html=1;" parent="ayAh6vKi0bp1DgzsXxaQ-1" vertex="1">
          <mxGeometry x="110" y="47.5" width="50" height="30" as="geometry" />
        </mxCell>
        <mxCell id="EDjnVnsCVGzYCs3zLX-O-62" value="" style="endArrow=none;html=1;rounded=0;" parent="ayAh6vKi0bp1DgzsXxaQ-1" source="EDjnVnsCVGzYCs3zLX-O-56" target="EDjnVnsCVGzYCs3zLX-O-61" edge="1">
          <mxGeometry width="50" height="50" relative="1" as="geometry">
            <mxPoint x="30" y="60.5" as="sourcePoint" />
            <mxPoint x="17.5" y="135" as="targetPoint" />
          </mxGeometry>
        </mxCell>
        <mxCell id="EDjnVnsCVGzYCs3zLX-O-63" value="cant_stock" style="ellipse;whiteSpace=wrap;html=1;" parent="ayAh6vKi0bp1DgzsXxaQ-1" vertex="1">
          <mxGeometry x="150" y="27.5" width="60" height="30" as="geometry" />
        </mxCell>
        <mxCell id="EDjnVnsCVGzYCs3zLX-O-64" value="" style="endArrow=none;html=1;rounded=0;" parent="ayAh6vKi0bp1DgzsXxaQ-1" source="EDjnVnsCVGzYCs3zLX-O-56" target="EDjnVnsCVGzYCs3zLX-O-63" edge="1">
          <mxGeometry width="50" height="50" relative="1" as="geometry">
            <mxPoint x="140" y="110.5" as="sourcePoint" />
            <mxPoint x="127.5" y="185" as="targetPoint" />
          </mxGeometry>
        </mxCell>
        <mxCell id="EDjnVnsCVGzYCs3zLX-O-54" value="&lt;u&gt;id&lt;/u&gt;" style="ellipse;whiteSpace=wrap;html=1;" parent="ayAh6vKi0bp1DgzsXxaQ-1" vertex="1">
          <mxGeometry y="30" width="50" height="25" as="geometry" />
        </mxCell>
        <mxCell id="EDjnVnsCVGzYCs3zLX-O-55" value="" style="endArrow=none;html=1;rounded=0;" parent="ayAh6vKi0bp1DgzsXxaQ-1" source="EDjnVnsCVGzYCs3zLX-O-56" target="EDjnVnsCVGzYCs3zLX-O-54" edge="1">
          <mxGeometry width="50" height="50" relative="1" as="geometry">
            <mxPoint x="77.5" y="-25" as="sourcePoint" />
            <mxPoint x="-12.5" y="50" as="targetPoint" />
          </mxGeometry>
        </mxCell>
        <mxCell id="EDjnVnsCVGzYCs3zLX-O-56" value="Producto" style="rounded=0;whiteSpace=wrap;html=1;" parent="ayAh6vKi0bp1DgzsXxaQ-1" vertex="1">
          <mxGeometry x="70" width="70" height="30" as="geometry" />
        </mxCell>
        <mxCell id="EDjnVnsCVGzYCs3zLX-O-57" value="DescripciÃ³n" style="ellipse;whiteSpace=wrap;html=1;" parent="ayAh6vKi0bp1DgzsXxaQ-1" vertex="1">
          <mxGeometry x="80" y="77.5" width="60" height="30" as="geometry" />
        </mxCell>
        <mxCell id="EDjnVnsCVGzYCs3zLX-O-58" value="" style="endArrow=none;html=1;rounded=0;" parent="ayAh6vKi0bp1DgzsXxaQ-1" source="EDjnVnsCVGzYCs3zLX-O-56" target="EDjnVnsCVGzYCs3zLX-O-57" edge="1">
          <mxGeometry width="50" height="50" relative="1" as="geometry">
            <mxPoint x="148" y="30" as="sourcePoint" />
            <mxPoint x="57.5" y="70" as="targetPoint" />
          </mxGeometry>
        </mxCell>
        <mxCell id="EDjnVnsCVGzYCs3zLX-O-59" value="nombre" style="ellipse;whiteSpace=wrap;html=1;" parent="ayAh6vKi0bp1DgzsXxaQ-1" vertex="1">
          <mxGeometry x="25" y="57.5" width="60" height="30" as="geometry" />
        </mxCell>
        <mxCell id="EDjnVnsCVGzYCs3zLX-O-60" value="" style="endArrow=none;html=1;rounded=0;" parent="ayAh6vKi0bp1DgzsXxaQ-1" source="EDjnVnsCVGzYCs3zLX-O-56" target="EDjnVnsCVGzYCs3zLX-O-59" edge="1">
          <mxGeometry width="50" height="50" relative="1" as="geometry">
            <mxPoint x="98" y="30" as="sourcePoint" />
            <mxPoint x="7.5" y="70" as="targetPoint" />
          </mxGeometry>
        </mxCell>
        <mxCell id="ayAh6vKi0bp1DgzsXxaQ-2" value="" style="group" parent="B-fqAywJtdYy5qds0nsP-61" vertex="1" connectable="0">
          <mxGeometry x="22.5" y="222.5" width="200" height="60" as="geometry" />
        </mxCell>
        <mxCell id="EDjnVnsCVGzYCs3zLX-O-44" value="&lt;u&gt;id&lt;/u&gt;" style="ellipse;whiteSpace=wrap;html=1;" parent="ayAh6vKi0bp1DgzsXxaQ-2" vertex="1">
          <mxGeometry x="150" width="30" height="25" as="geometry" />
        </mxCell>
        <mxCell id="EDjnVnsCVGzYCs3zLX-O-45" value="" style="endArrow=none;html=1;rounded=0;" parent="ayAh6vKi0bp1DgzsXxaQ-2" source="EDjnVnsCVGzYCs3zLX-O-46" target="EDjnVnsCVGzYCs3zLX-O-44" edge="1">
          <mxGeometry width="50" height="50" relative="1" as="geometry">
            <mxPoint x="77.5" y="7.5" as="sourcePoint" />
            <mxPoint x="-12.5" y="82.5" as="targetPoint" />
          </mxGeometry>
        </mxCell>
        <mxCell id="EDjnVnsCVGzYCs3zLX-O-46" value="Venta" style="rounded=0;whiteSpace=wrap;html=1;" parent="ayAh6vKi0bp1DgzsXxaQ-2" vertex="1">
          <mxGeometry x="70" y="12.5" width="70" height="30" as="geometry" />
        </mxCell>
        <mxCell id="EDjnVnsCVGzYCs3zLX-O-47" value="monto total" style="ellipse;whiteSpace=wrap;html=1;" parent="ayAh6vKi0bp1DgzsXxaQ-2" vertex="1">
          <mxGeometry y="12.5" width="60" height="30" as="geometry" />
        </mxCell>
        <mxCell id="EDjnVnsCVGzYCs3zLX-O-48" value="" style="endArrow=none;html=1;rounded=0;" parent="ayAh6vKi0bp1DgzsXxaQ-2" source="EDjnVnsCVGzYCs3zLX-O-46" target="EDjnVnsCVGzYCs3zLX-O-47" edge="1">
          <mxGeometry width="50" height="50" relative="1" as="geometry">
            <mxPoint x="148" y="62.5" as="sourcePoint" />
            <mxPoint x="57.5" y="102.5" as="targetPoint" />
          </mxGeometry>
        </mxCell>
        <mxCell id="EDjnVnsCVGzYCs3zLX-O-49" value="fecha" style="ellipse;whiteSpace=wrap;html=1;" parent="ayAh6vKi0bp1DgzsXxaQ-2" vertex="1">
          <mxGeometry x="160" y="30" width="40" height="30" as="geometry" />
        </mxCell>
        <mxCell id="EDjnVnsCVGzYCs3zLX-O-50" value="" style="endArrow=none;html=1;rounded=0;" parent="ayAh6vKi0bp1DgzsXxaQ-2" source="EDjnVnsCVGzYCs3zLX-O-46" target="EDjnVnsCVGzYCs3zLX-O-49" edge="1">
          <mxGeometry width="50" height="50" relative="1" as="geometry">
            <mxPoint x="98" y="62.5" as="sourcePoint" />
            <mxPoint x="7.5" y="102.5" as="targetPoint" />
          </mxGeometry>
        </mxCell>
        <mxCell id="ayAh6vKi0bp1DgzsXxaQ-6" value="1:M" style="text;html=1;align=center;verticalAlign=middle;resizable=0;points=[];autosize=1;strokeColor=none;fillColor=none;" parent="ayAh6vKi0bp1DgzsXxaQ-2" vertex="1">
          <mxGeometry x="100" y="-10" width="40" height="30" as="geometry" />
        </mxCell>
        <mxCell id="ayAh6vKi0bp1DgzsXxaQ-3" value="" style="endArrow=none;html=1;rounded=0;" parent="B-fqAywJtdYy5qds0nsP-61" source="EDjnVnsCVGzYCs3zLX-O-39" target="EDjnVnsCVGzYCs3zLX-O-46" edge="1">
          <mxGeometry width="50" height="50" relative="1" as="geometry">
            <mxPoint x="149.5" y="75.5" as="sourcePoint" />
            <mxPoint x="135.5" y="154.5" as="targetPoint" />
          </mxGeometry>
        </mxCell>
        <mxCell id="ayAh6vKi0bp1DgzsXxaQ-4" value="" style="group" parent="B-fqAywJtdYy5qds0nsP-61" vertex="1" connectable="0">
          <mxGeometry width="162.5" height="100" as="geometry" />
        </mxCell>
        <mxCell id="EDjnVnsCVGzYCs3zLX-O-6" value="&lt;u&gt;ID&lt;/u&gt;" style="ellipse;whiteSpace=wrap;html=1;" parent="ayAh6vKi0bp1DgzsXxaQ-4" vertex="1">
          <mxGeometry x="90" width="50" height="25" as="geometry" />
        </mxCell>
        <mxCell id="EDjnVnsCVGzYCs3zLX-O-7" value="" style="endArrow=none;html=1;rounded=0;" parent="ayAh6vKi0bp1DgzsXxaQ-4" source="EDjnVnsCVGzYCs3zLX-O-9" target="EDjnVnsCVGzYCs3zLX-O-6" edge="1">
          <mxGeometry width="50" height="50" relative="1" as="geometry">
            <mxPoint x="97.5" y="37.5" as="sourcePoint" />
            <mxPoint x="7.5" y="112.5" as="targetPoint" />
          </mxGeometry>
        </mxCell>
        <mxCell id="EDjnVnsCVGzYCs3zLX-O-9" value="Usuario" style="rounded=0;whiteSpace=wrap;html=1;" parent="ayAh6vKi0bp1DgzsXxaQ-4" vertex="1">
          <mxGeometry x="92.5" y="45" width="70" height="30" as="geometry" />
        </mxCell>
        <mxCell id="EDjnVnsCVGzYCs3zLX-O-10" value="password" style="ellipse;whiteSpace=wrap;html=1;" parent="ayAh6vKi0bp1DgzsXxaQ-4" vertex="1">
          <mxGeometry y="45" width="60" height="30" as="geometry" />
        </mxCell>
        <mxCell id="EDjnVnsCVGzYCs3zLX-O-11" value="" style="endArrow=none;html=1;rounded=0;" parent="ayAh6vKi0bp1DgzsXxaQ-4" source="EDjnVnsCVGzYCs3zLX-O-9" target="EDjnVnsCVGzYCs3zLX-O-10" edge="1">
          <mxGeometry width="50" height="50" relative="1" as="geometry">
            <mxPoint x="168" y="92.5" as="sourcePoint" />
            <mxPoint x="77.5" y="132.5" as="targetPoint" />
          </mxGeometry>
        </mxCell>
        <mxCell id="EDjnVnsCVGzYCs3zLX-O-12" value="email" style="ellipse;whiteSpace=wrap;html=1;" parent="ayAh6vKi0bp1DgzsXxaQ-4" vertex="1">
          <mxGeometry x="20" y="10" width="60" height="30" as="geometry" />
        </mxCell>
        <mxCell id="EDjnVnsCVGzYCs3zLX-O-13" value="" style="endArrow=none;html=1;rounded=0;" parent="ayAh6vKi0bp1DgzsXxaQ-4" source="EDjnVnsCVGzYCs3zLX-O-9" target="EDjnVnsCVGzYCs3zLX-O-12" edge="1">
          <mxGeometry width="50" height="50" relative="1" as="geometry">
            <mxPoint x="118" y="92.5" as="sourcePoint" />
            <mxPoint x="27.5" y="132.5" as="targetPoint" />
          </mxGeometry>
        </mxCell>
        <mxCell id="EDjnVnsCVGzYCs3zLX-O-14" value="tipo" style="ellipse;whiteSpace=wrap;html=1;" parent="ayAh6vKi0bp1DgzsXxaQ-4" vertex="1">
          <mxGeometry x="40" y="77.5" width="40" height="22.5" as="geometry" />
        </mxCell>
        <mxCell id="EDjnVnsCVGzYCs3zLX-O-15" value="" style="endArrow=none;html=1;rounded=0;" parent="ayAh6vKi0bp1DgzsXxaQ-4" source="EDjnVnsCVGzYCs3zLX-O-9" target="EDjnVnsCVGzYCs3zLX-O-14" edge="1">
          <mxGeometry width="50" height="50" relative="1" as="geometry">
            <mxPoint x="128" y="102.5" as="sourcePoint" />
            <mxPoint x="37.5" y="142.5" as="targetPoint" />
          </mxGeometry>
        </mxCell>
        <mxCell id="ayAh6vKi0bp1DgzsXxaQ-5" value="1:1" style="text;html=1;align=center;verticalAlign=middle;resizable=0;points=[];autosize=1;strokeColor=none;fillColor=none;" parent="ayAh6vKi0bp1DgzsXxaQ-4" vertex="1">
          <mxGeometry x="117.5" y="70" width="40" height="30" as="geometry" />
        </mxCell>
        <mxCell id="ayAh6vKi0bp1DgzsXxaQ-8" value="tiene" style="rhombus;whiteSpace=wrap;html=1;" parent="B-fqAywJtdYy5qds0nsP-61" vertex="1">
          <mxGeometry x="101.25" y="310" width="52.5" height="37.5" as="geometry" />
        </mxCell>
        <mxCell id="ayAh6vKi0bp1DgzsXxaQ-10" value="" style="endArrow=none;html=1;rounded=0;" parent="B-fqAywJtdYy5qds0nsP-61" source="EDjnVnsCVGzYCs3zLX-O-46" target="ayAh6vKi0bp1DgzsXxaQ-8" edge="1">
          <mxGeometry width="50" height="50" relative="1" as="geometry">
            <mxPoint x="137.5" y="180.5" as="sourcePoint" />
            <mxPoint x="137.5" y="245.5" as="targetPoint" />
          </mxGeometry>
        </mxCell>
        <mxCell id="ayAh6vKi0bp1DgzsXxaQ-11" value="" style="endArrow=none;html=1;rounded=0;" parent="B-fqAywJtdYy5qds0nsP-61" source="ayAh6vKi0bp1DgzsXxaQ-8" target="EDjnVnsCVGzYCs3zLX-O-56" edge="1">
          <mxGeometry width="50" height="50" relative="1" as="geometry">
            <mxPoint x="137.5" y="275.5" as="sourcePoint" />
            <mxPoint x="137.5" y="313.5" as="targetPoint" />
          </mxGeometry>
        </mxCell>
        <mxCell id="ayAh6vKi0bp1DgzsXxaQ-12" value="1:N" style="text;html=1;align=center;verticalAlign=middle;resizable=0;points=[];autosize=1;strokeColor=none;fillColor=none;" parent="B-fqAywJtdYy5qds0nsP-61" vertex="1">
          <mxGeometry x="117.5" y="260.5" width="40" height="30" as="geometry" />
        </mxCell>
        <mxCell id="ayAh6vKi0bp1DgzsXxaQ-13" value="1:M" style="text;html=1;align=center;verticalAlign=middle;resizable=0;points=[];autosize=1;strokeColor=none;fillColor=none;" parent="B-fqAywJtdYy5qds0nsP-61" vertex="1">
          <mxGeometry x="122.5" y="372.5" width="40" height="30" as="geometry" />
        </mxCell>
      </root>
    </mxGraphModel>
  </diagram>
</mxfile>
